<svg version="1.1" id="Layer_1" xmlns="http://www.w3.org/2000/svg" xmlns:xlink="http://www.w3.org/1999/xlink" x="0px" y="0px"
	 width="100%" viewBox="0 0 1000 1000" enable-background="new 0 0 1000 1000" xml:space="preserve">
<path fill="#FFFFFF" opacity="1.000000" stroke="none" 
	d="
M533.000000,1001.000000 
	C355.333344,1001.000000 178.166672,1001.000000 1.000000,1001.000000 
	C1.000000,667.666687 1.000000,334.333344 1.000000,1.000000 
	C334.333344,1.000000 667.666687,1.000000 1001.000000,1.000000 
	C1001.000000,334.333344 1001.000000,667.666687 1001.000000,1001.000000 
	C845.166687,1001.000000 689.333313,1001.000000 533.000000,1001.000000 
M677.408691,155.099899 
	C676.266174,154.413589 675.133545,153.710236 673.979797,153.043350 
	C618.628235,121.049553 563.275574,89.057625 507.920929,57.069172 
	C498.853027,51.828991 498.914917,51.951385 489.079376,57.647076 
	C432.744202,90.270355 376.383392,122.849449 320.014801,155.414963 
	C259.466125,190.395370 198.908783,225.360779 138.306915,260.248779 
	C135.785629,261.700287 134.939056,263.308807 134.940414,266.157288 
	C135.005966,403.651276 135.007690,541.145325 134.933411,678.639282 
	C134.931763,681.699707 135.897324,683.368713 138.559021,684.901611 
	C198.289307,719.300476 257.962006,753.799255 317.649200,788.273010 
	C376.904724,822.497498 436.176208,856.694397 495.382782,891.003235 
	C498.041351,892.543823 499.870209,892.614624 502.561768,891.052795 
	C554.546509,860.887085 606.596008,830.833252 658.638550,800.767212 
	C725.386597,762.205566 792.126343,723.629333 858.936890,685.176331 
	C861.936035,683.450134 863.079773,681.686157 863.077515,678.214539 
	C862.988892,541.053894 862.991577,403.893188 863.067200,266.732513 
	C863.068970,263.537537 862.248840,261.673889 859.332764,260.021515 
	C841.226807,249.761948 823.257996,239.260590 805.234131,228.855988 
	C762.841980,204.384354 720.444397,179.922028 677.408691,155.099899 
z"/>
<path fill="#8FA5CA" opacity="1.000000" stroke="none" 
	d="
M677.728882,155.277908 
	C720.444397,179.922028 762.841980,204.384354 805.234131,228.855988 
	C823.257996,239.260590 841.226807,249.761948 859.332764,260.021515 
	C862.248840,261.673889 863.068970,263.537537 863.067200,266.732513 
	C862.991577,403.893188 862.988892,541.053894 863.077515,678.214539 
	C863.079773,681.686157 861.936035,683.450134 858.936890,685.176331 
	C792.126343,723.629333 725.386597,762.205566 658.638550,800.767212 
	C606.596008,830.833252 554.546509,860.887085 502.561768,891.052795 
	C499.870209,892.614624 498.041351,892.543823 495.382782,891.003235 
	C436.176208,856.694397 376.904724,822.497498 317.649200,788.273010 
	C257.962006,753.799255 198.289307,719.300476 138.559021,684.901611 
	C135.897324,683.368713 134.931763,681.699707 134.933411,678.639282 
	C135.007690,541.145325 135.005966,403.651276 134.940414,266.157288 
	C134.939056,263.308807 135.785629,261.700287 138.306915,260.248779 
	C198.908783,225.360779 259.466125,190.395370 320.014801,155.414963 
	C376.383392,122.849449 432.744202,90.270355 489.079376,57.647076 
	C498.914917,51.951385 498.853027,51.828991 507.920929,57.069172 
	C563.275574,89.057625 618.628235,121.049553 673.979797,153.043350 
	C675.133545,153.710236 676.266174,154.413589 677.728882,155.277908 
M511.682953,208.996017 
	C523.262695,211.326584 535.114685,212.767136 546.355774,216.204956 
	C561.636841,220.878250 574.724121,229.506958 584.325256,242.740479 
	C594.146606,256.277405 600.291138,271.404266 604.021179,287.615570 
	C606.780762,299.609283 608.115112,311.900909 604.465942,323.638153 
	C596.623718,348.862457 582.341797,369.397186 557.005127,379.867188 
	C541.402832,386.314636 524.896362,389.600281 508.139221,385.432129 
	C484.842102,379.637207 468.377136,364.999084 458.825775,343.127960 
	C456.085052,336.852142 454.445190,329.616730 454.375580,322.800110 
	C454.316559,317.019592 456.959778,311.107727 458.930939,305.435974 
	C461.524994,297.971924 465.554169,291.060455 472.095306,286.554993 
	C489.360138,274.663208 508.355499,271.693115 528.010132,279.136841 
	C540.930908,284.030304 547.691772,290.070404 545.958923,305.087036 
	C545.620667,308.018188 545.320496,311.145111 544.082764,313.743500 
	C540.938354,320.344727 538.285522,327.587097 533.581299,332.944275 
	C526.268250,341.272491 513.594055,340.380127 501.917999,334.392609 
	C497.133972,331.939301 492.237122,325.338654 494.182159,319.404724 
	C495.406128,315.670624 498.140381,312.385345 500.433777,309.062012 
	C502.448181,306.142975 503.012787,299.023804 501.110657,296.714600 
	C498.192352,293.171936 492.998047,292.176849 488.720581,294.944550 
	C486.325714,296.494141 484.239166,298.773315 482.543518,301.108490 
	C473.088867,314.129028 473.572479,332.407806 484.775543,344.408142 
	C492.650452,352.843536 502.502747,355.568146 513.408569,357.180847 
	C530.783997,359.750275 543.601135,352.872803 553.279419,339.250641 
	C562.207886,326.683838 565.159180,312.501373 564.182190,297.083252 
	C563.618347,288.185394 560.944153,280.723389 554.849365,274.438110 
	C542.133667,261.325104 525.481262,257.483215 508.331268,256.305969 
	C500.512604,255.769272 492.285614,257.791687 484.560791,259.845581 
	C444.582031,270.475220 430.870819,307.842346 438.736084,341.836334 
	C444.478088,366.653473 461.245209,383.960907 483.334991,396.088043 
	C503.625366,407.227386 525.155884,409.264038 547.692749,405.091827 
	C575.894165,399.870941 598.385193,385.998108 614.337524,362.052795 
	C625.285400,345.619415 631.885681,327.794739 631.056763,307.624908 
	C630.529236,294.789276 627.329285,282.692657 622.959106,270.693481 
	C613.749634,245.406845 600.293701,223.835785 576.299988,209.581482 
	C554.419434,196.582581 530.867981,190.186447 505.851135,189.233383 
	C495.069885,188.822632 484.048676,190.190552 473.383972,192.119232 
	C445.531647,197.156235 421.320740,209.936493 401.073944,229.612350 
	C387.327820,242.970856 377.135895,259.039032 369.218323,276.500580 
	C364.191650,287.586365 361.337311,299.263947 361.101135,311.396759 
	C360.923920,320.499176 361.517792,329.627869 362.032349,338.729919 
	C362.946930,354.907349 367.591217,370.143036 374.384064,384.744202 
	C380.784546,398.502014 390.248779,410.118652 399.977386,421.645752 
	C416.677948,441.433746 437.143280,455.628845 461.084045,465.157532 
	C467.391266,467.667847 474.563019,468.938873 478.343689,475.764740 
	C479.367432,477.613068 480.940582,479.167480 482.322205,480.805603 
	C493.924316,494.561646 502.652161,509.259613 499.049194,528.421875 
	C495.986267,544.711731 493.958954,561.236267 490.071045,577.317871 
	C487.188538,589.240845 482.820557,600.963196 477.782074,612.176270 
	C463.278748,644.453552 437.531891,664.609131 405.146637,677.020264 
	C392.098022,682.020874 378.623688,682.582825 364.716705,681.165405 
	C346.477173,679.306335 329.113190,675.160156 312.886383,666.460388 
	C288.536102,653.405396 270.144836,634.479431 257.591187,610.001648 
	C250.485367,596.146362 245.988998,581.380005 243.897339,565.852722 
	C242.008575,551.831543 242.533691,538.223145 248.047501,524.981018 
	C252.418518,514.483459 258.677948,505.219177 266.123108,496.759369 
	C276.122192,485.397644 287.099457,475.103210 301.182861,468.920715 
	C321.793854,459.872528 342.730286,461.659973 363.610382,467.874420 
	C378.939301,472.436768 390.561829,482.556915 400.582642,494.429718 
	C407.917725,503.120422 414.062531,512.751465 416.997070,524.003357 
	C420.425049,537.146973 419.738586,550.374573 415.749573,563.097229 
	C407.819000,588.391113 392.522034,603.042725 365.759644,605.890808 
	C346.803619,607.908081 333.233551,597.958008 322.071198,584.043396 
	C314.976288,575.199097 311.166840,564.712341 310.195160,553.564758 
	C308.893951,538.636902 312.551483,530.012634 325.083374,526.315552 
	C332.714172,524.064331 340.991150,523.368164 348.993835,523.269348 
	C353.268066,523.216553 358.208344,525.025574 361.746490,527.542664 
	C371.074066,534.178467 373.894043,544.343689 372.739746,555.099060 
	C372.060608,561.427185 368.449066,567.306335 359.400696,566.966248 
	C356.114288,566.842773 352.845215,566.304688 349.562775,566.018127 
	C344.157135,565.546204 340.316376,568.117981 339.119293,572.948792 
	C337.941345,577.702393 339.687897,582.302490 344.719757,583.667053 
	C350.506256,585.236328 356.714996,585.965759 362.721344,585.869812 
	C379.265350,585.605591 395.782410,565.484497 392.836334,549.352173 
	C391.688660,543.067627 389.988953,536.801819 387.769775,530.813110 
	C383.885742,520.331787 376.807098,512.414917 366.382172,508.024811 
	C350.279419,501.243683 333.939423,502.727417 317.982239,508.205872 
	C300.734222,514.127502 291.512421,528.165283 291.074951,546.471802 
	C290.498260,570.605347 299.486969,590.731995 317.428131,606.988098 
	C333.809418,621.830933 352.374542,628.372009 374.555359,624.109863 
	C403.364624,618.573975 422.004517,601.346680 432.070831,574.520996 
	C437.453064,560.177917 439.184875,545.231567 437.180054,529.757080 
	C435.717438,518.467407 433.014008,507.681976 427.776672,497.704254 
	C421.119720,485.022034 412.286346,473.904724 401.707916,464.159760 
	C389.559967,452.968994 375.490387,445.223022 359.619324,441.077759 
	C346.839478,437.739899 333.895447,436.776703 320.467041,437.641663 
	C305.206421,438.624664 292.217865,444.319855 279.894623,452.162018 
	C267.098877,460.304901 256.899353,471.497498 247.502029,483.249847 
	C237.863449,495.303925 230.095001,508.629272 226.735626,523.829163 
	C223.548126,538.251404 223.317627,552.907654 224.816528,567.718750 
	C226.522141,584.572449 231.829758,600.242493 238.848724,615.345215 
	C248.472824,636.053406 262.413483,653.683838 280.440491,667.705200 
	C289.115143,674.452454 298.329651,680.860962 308.149872,685.696106 
	C322.611267,692.816467 337.971252,697.516418 354.267548,699.387756 
	C367.516113,700.909119 380.739502,702.009521 393.787292,699.752686 
	C420.183655,695.187073 442.602203,682.118896 462.613678,664.804565 
	C483.107910,647.072571 495.339111,623.930908 503.983337,598.777771 
	C506.847870,590.442505 508.220306,581.582397 510.105377,572.925415 
	C512.819092,560.462830 515.405518,547.972290 517.995483,535.483093 
	C521.033142,520.834839 523.040894,505.740295 530.441406,492.548462 
	C535.234558,484.004364 541.758179,476.371765 547.990173,468.724976 
	C550.294617,465.897400 553.833008,463.941833 557.074097,462.041138 
	C562.464111,458.880341 568.093445,456.130615 573.577637,453.126831 
	C589.280090,444.526276 605.556030,438.140564 623.594971,435.674438 
	C640.254272,433.396912 656.539307,432.197021 673.124878,435.899536 
	C695.904724,440.984802 715.791870,451.595245 733.129639,466.840820 
	C742.778259,475.325104 748.660950,486.663055 754.241211,498.242126 
	C765.253662,521.093079 769.125488,544.795349 766.123779,569.945068 
	C763.587402,591.195801 756.269043,610.478027 744.438171,628.161804 
	C735.842407,641.009949 725.341919,652.177612 712.958191,661.329468 
	C699.265198,671.448853 684.001526,677.432556 666.519043,677.088135 
	C653.539856,676.832458 640.929871,674.908752 628.583435,671.039307 
	C616.026489,667.103943 604.350891,661.686646 594.716797,652.314941 
	C585.377258,643.229736 579.260559,632.052612 574.423950,620.350769 
	C568.110229,605.074829 567.138245,589.073303 570.841003,572.753113 
	C574.031494,558.690857 579.399231,545.591187 588.429443,534.480347 
	C598.222168,522.431396 611.769104,515.610596 626.670654,512.168762 
	C640.810303,508.902863 655.137085,508.583923 668.296082,516.153564 
	C692.181396,529.893494 701.446594,550.386047 693.391174,577.258728 
	C689.383118,590.629639 681.151794,600.861755 670.254944,609.211609 
	C659.302429,617.604065 647.232422,617.030090 637.672546,607.003235 
	C633.272095,602.387817 629.417725,597.118591 626.069397,591.681641 
	C623.982910,588.293579 622.643860,584.124939 622.121399,580.155029 
	C620.643799,568.928223 633.148071,556.090942 640.827637,553.141479 
	C646.871948,550.820129 652.821960,552.266357 656.802734,557.453796 
	C658.648132,559.858521 660.039124,562.778259 660.977295,565.677673 
	C662.859741,571.495728 667.735168,575.011841 672.748108,573.633423 
	C678.736877,571.986694 681.303101,567.414856 679.390320,560.942139 
	C678.279114,557.181885 676.870483,553.398193 674.914734,550.019165 
	C668.188538,538.398010 655.643066,531.038391 639.659546,533.790833 
	C629.017151,535.623657 621.778137,542.034241 615.109741,549.478943 
	C604.078491,561.794373 600.020508,575.886292 605.512024,591.996338 
	C609.427734,603.483643 616.180298,613.130310 624.940552,621.443909 
	C639.644104,635.397644 655.481812,637.766907 673.174622,629.246399 
	C691.146301,620.591614 702.595154,605.725220 710.022400,587.482788 
	C715.025391,575.194824 716.658142,562.191895 714.675049,549.441772 
	C710.883179,525.062378 695.845703,508.292419 674.172119,497.805054 
	C655.868042,488.948090 636.573364,489.063904 617.308228,495.052734 
	C596.157471,501.627838 578.555054,513.445068 565.914185,531.768066 
	C557.919434,543.356384 552.435181,556.259094 548.985901,569.980591 
	C545.578491,583.536133 544.796204,597.170837 546.941895,611.017273 
	C548.623291,621.868225 552.194153,631.994934 556.800293,641.950378 
	C563.482971,656.394104 572.783081,668.660889 585.714905,677.789001 
	C605.447266,691.717346 628.333984,696.755981 651.821289,698.842957 
	C670.023804,700.460266 687.560608,697.018250 704.019958,688.546509 
	C720.564514,680.030945 735.152588,669.189819 747.483093,655.139526 
	C759.045776,641.964111 768.267212,627.428650 774.996216,611.309631 
	C780.351562,598.481018 784.327698,585.217346 785.024292,571.245972 
	C785.593994,559.817322 786.708679,548.251526 785.588013,536.944153 
	C784.162476,522.560364 779.974243,508.627472 774.023376,495.278076 
	C767.044434,479.622467 758.815063,464.775421 746.275330,452.913330 
	C732.918579,440.278381 717.029358,431.229736 700.178955,424.299011 
	C682.681824,417.102234 664.238159,413.190857 645.157715,414.099792 
	C637.125610,414.482452 629.159180,416.099976 621.141052,416.949860 
	C599.247620,419.270447 579.545959,427.472321 560.696411,438.479614 
	C553.040649,442.950165 546.070496,448.390991 536.239685,449.438843 
	C520.188049,451.149811 504.426422,454.068146 488.150970,451.137390 
	C474.497131,448.678680 461.200989,446.336273 448.994843,438.722931 
	C425.140930,423.844513 406.602966,404.165039 393.049530,379.797638 
	C386.024353,367.167328 381.787872,353.305695 381.136505,338.841858 
	C380.551788,325.857056 379.477539,312.423096 382.005737,299.869293 
	C386.971527,275.211548 401.286499,255.380325 419.850769,238.673935 
	C434.746521,225.268997 452.198669,216.588867 471.615082,212.059204 
	C479.109772,210.310776 486.861938,209.469452 494.547791,208.804092 
	C499.906128,208.340225 505.351288,208.879227 511.682953,208.996017 
z"/>
<path fill="#FEFFFF" opacity="1.000000" stroke="none" 
	d="
M511.220306,208.983139 
	C505.351288,208.879227 499.906128,208.340225 494.547791,208.804092 
	C486.861938,209.469452 479.109772,210.310776 471.615082,212.059204 
	C452.198669,216.588867 434.746521,225.268997 419.850769,238.673935 
	C401.286499,255.380325 386.971527,275.211548 382.005737,299.869293 
	C379.477539,312.423096 380.551788,325.857056 381.136505,338.841858 
	C381.787872,353.305695 386.024353,367.167328 393.049530,379.797638 
	C406.602966,404.165039 425.140930,423.844513 448.994843,438.722931 
	C461.200989,446.336273 474.497131,448.678680 488.150970,451.137390 
	C504.426422,454.068146 520.188049,451.149811 536.239685,449.438843 
	C546.070496,448.390991 553.040649,442.950165 560.696411,438.479614 
	C579.545959,427.472321 599.247620,419.270447 621.141052,416.949860 
	C629.159180,416.099976 637.125610,414.482452 645.157715,414.099792 
	C664.238159,413.190857 682.681824,417.102234 700.178955,424.299011 
	C717.029358,431.229736 732.918579,440.278381 746.275330,452.913330 
	C758.815063,464.775421 767.044434,479.622467 774.023376,495.278076 
	C779.974243,508.627472 784.162476,522.560364 785.588013,536.944153 
	C786.708679,548.251526 785.593994,559.817322 785.024292,571.245972 
	C784.327698,585.217346 780.351562,598.481018 774.996216,611.309631 
	C768.267212,627.428650 759.045776,641.964111 747.483093,655.139526 
	C735.152588,669.189819 720.564514,680.030945 704.019958,688.546509 
	C687.560608,697.018250 670.023804,700.460266 651.821289,698.842957 
	C628.333984,696.755981 605.447266,691.717346 585.714905,677.789001 
	C572.783081,668.660889 563.482971,656.394104 556.800293,641.950378 
	C552.194153,631.994934 548.623291,621.868225 546.941895,611.017273 
	C544.796204,597.170837 545.578491,583.536133 548.985901,569.980591 
	C552.435181,556.259094 557.919434,543.356384 565.914185,531.768066 
	C578.555054,513.445068 596.157471,501.627838 617.308228,495.052734 
	C636.573364,489.063904 655.868042,488.948090 674.172119,497.805054 
	C695.845703,508.292419 710.883179,525.062378 714.675049,549.441772 
	C716.658142,562.191895 715.025391,575.194824 710.022400,587.482788 
	C702.595154,605.725220 691.146301,620.591614 673.174622,629.246399 
	C655.481812,637.766907 639.644104,635.397644 624.940552,621.443909 
	C616.180298,613.130310 609.427734,603.483643 605.512024,591.996338 
	C600.020508,575.886292 604.078491,561.794373 615.109741,549.478943 
	C621.778137,542.034241 629.017151,535.623657 639.659546,533.790833 
	C655.643066,531.038391 668.188538,538.398010 674.914734,550.019165 
	C676.870483,553.398193 678.279114,557.181885 679.390320,560.942139 
	C681.303101,567.414856 678.736877,571.986694 672.748108,573.633423 
	C667.735168,575.011841 662.859741,571.495728 660.977295,565.677673 
	C660.039124,562.778259 658.648132,559.858521 656.802734,557.453796 
	C652.821960,552.266357 646.871948,550.820129 640.827637,553.141479 
	C633.148071,556.090942 620.643799,568.928223 622.121399,580.155029 
	C622.643860,584.124939 623.982910,588.293579 626.069397,591.681641 
	C629.417725,597.118591 633.272095,602.387817 637.672546,607.003235 
	C647.232422,617.030090 659.302429,617.604065 670.254944,609.211609 
	C681.151794,600.861755 689.383118,590.629639 693.391174,577.258728 
	C701.446594,550.386047 692.181396,529.893494 668.296082,516.153564 
	C655.137085,508.583923 640.810303,508.902863 626.670654,512.168762 
	C611.769104,515.610596 598.222168,522.431396 588.429443,534.480347 
	C579.399231,545.591187 574.031494,558.690857 570.841003,572.753113 
	C567.138245,589.073303 568.110229,605.074829 574.423950,620.350769 
	C579.260559,632.052612 585.377258,643.229736 594.716797,652.314941 
	C604.350891,661.686646 616.026489,667.103943 628.583435,671.039307 
	C640.929871,674.908752 653.539856,676.832458 666.519043,677.088135 
	C684.001526,677.432556 699.265198,671.448853 712.958191,661.329468 
	C725.341919,652.177612 735.842407,641.009949 744.438171,628.161804 
	C756.269043,610.478027 763.587402,591.195801 766.123779,569.945068 
	C769.125488,544.795349 765.253662,521.093079 754.241211,498.242126 
	C748.660950,486.663055 742.778259,475.325104 733.129639,466.840820 
	C715.791870,451.595245 695.904724,440.984802 673.124878,435.899536 
	C656.539307,432.197021 640.254272,433.396912 623.594971,435.674438 
	C605.556030,438.140564 589.280090,444.526276 573.577637,453.126831 
	C568.093445,456.130615 562.464111,458.880341 557.074097,462.041138 
	C553.833008,463.941833 550.294617,465.897400 547.990173,468.724976 
	C541.758179,476.371765 535.234558,484.004364 530.441406,492.548462 
	C523.040894,505.740295 521.033142,520.834839 517.995483,535.483093 
	C515.405518,547.972290 512.819092,560.462830 510.105377,572.925415 
	C508.220306,581.582397 506.847870,590.442505 503.983337,598.777771 
	C495.339111,623.930908 483.107910,647.072571 462.613678,664.804565 
	C442.602203,682.118896 420.183655,695.187073 393.787292,699.752686 
	C380.739502,702.009521 367.516113,700.909119 354.267548,699.387756 
	C337.971252,697.516418 322.611267,692.816467 308.149872,685.696106 
	C298.329651,680.860962 289.115143,674.452454 280.440491,667.705200 
	C262.413483,653.683838 248.472824,636.053406 238.848724,615.345215 
	C231.829758,600.242493 226.522141,584.572449 224.816528,567.718750 
	C223.317627,552.907654 223.548126,538.251404 226.735626,523.829163 
	C230.095001,508.629272 237.863449,495.303925 247.502029,483.249847 
	C256.899353,471.497498 267.098877,460.304901 279.894623,452.162018 
	C292.217865,444.319855 305.206421,438.624664 320.467041,437.641663 
	C333.895447,436.776703 346.839478,437.739899 359.619324,441.077759 
	C375.490387,445.223022 389.559967,452.968994 401.707916,464.159760 
	C412.286346,473.904724 421.119720,485.022034 427.776672,497.704254 
	C433.014008,507.681976 435.717438,518.467407 437.180054,529.757080 
	C439.184875,545.231567 437.453064,560.177917 432.070831,574.520996 
	C422.004517,601.346680 403.364624,618.573975 374.555359,624.109863 
	C352.374542,628.372009 333.809418,621.830933 317.428131,606.988098 
	C299.486969,590.731995 290.498260,570.605347 291.074951,546.471802 
	C291.512421,528.165283 300.734222,514.127502 317.982239,508.205872 
	C333.939423,502.727417 350.279419,501.243683 366.382172,508.024811 
	C376.807098,512.414917 383.885742,520.331787 387.769775,530.813110 
	C389.988953,536.801819 391.688660,543.067627 392.836334,549.352173 
	C395.782410,565.484497 379.265350,585.605591 362.721344,585.869812 
	C356.714996,585.965759 350.506256,585.236328 344.719757,583.667053 
	C339.687897,582.302490 337.941345,577.702393 339.119293,572.948792 
	C340.316376,568.117981 344.157135,565.546204 349.562775,566.018127 
	C352.845215,566.304688 356.114288,566.842773 359.400696,566.966248 
	C368.449066,567.306335 372.060608,561.427185 372.739746,555.099060 
	C373.894043,544.343689 371.074066,534.178467 361.746490,527.542664 
	C358.208344,525.025574 353.268066,523.216553 348.993835,523.269348 
	C340.991150,523.368164 332.714172,524.064331 325.083374,526.315552 
	C312.551483,530.012634 308.893951,538.636902 310.195160,553.564758 
	C311.166840,564.712341 314.976288,575.199097 322.071198,584.043396 
	C333.233551,597.958008 346.803619,607.908081 365.759644,605.890808 
	C392.522034,603.042725 407.819000,588.391113 415.749573,563.097229 
	C419.738586,550.374573 420.425049,537.146973 416.997070,524.003357 
	C414.062531,512.751465 407.917725,503.120422 400.582642,494.429718 
	C390.561829,482.556915 378.939301,472.436768 363.610382,467.874420 
	C342.730286,461.659973 321.793854,459.872528 301.182861,468.920715 
	C287.099457,475.103210 276.122192,485.397644 266.123108,496.759369 
	C258.677948,505.219177 252.418518,514.483459 248.047501,524.981018 
	C242.533691,538.223145 242.008575,551.831543 243.897339,565.852722 
	C245.988998,581.380005 250.485367,596.146362 257.591187,610.001648 
	C270.144836,634.479431 288.536102,653.405396 312.886383,666.460388 
	C329.113190,675.160156 346.477173,679.306335 364.716705,681.165405 
	C378.623688,682.582825 392.098022,682.020874 405.146637,677.020264 
	C437.531891,664.609131 463.278748,644.453552 477.782074,612.176270 
	C482.820557,600.963196 487.188538,589.240845 490.071045,577.317871 
	C493.958954,561.236267 495.986267,544.711731 499.049194,528.421875 
	C502.652161,509.259613 493.924316,494.561646 482.322205,480.805603 
	C480.940582,479.167480 479.367432,477.613068 478.343689,475.764740 
	C474.563019,468.938873 467.391266,467.667847 461.084045,465.157532 
	C437.143280,455.628845 416.677948,441.433746 399.977386,421.645752 
	C390.248779,410.118652 380.784546,398.502014 374.384064,384.744202 
	C367.591217,370.143036 362.946930,354.907349 362.032349,338.729919 
	C361.517792,329.627869 360.923920,320.499176 361.101135,311.396759 
	C361.337311,299.263947 364.191650,287.586365 369.218323,276.500580 
	C377.135895,259.039032 387.327820,242.970856 401.073944,229.612350 
	C421.320740,209.936493 445.531647,197.156235 473.383972,192.119232 
	C484.048676,190.190552 495.069885,188.822632 505.851135,189.233383 
	C530.867981,190.186447 554.419434,196.582581 576.299988,209.581482 
	C600.293701,223.835785 613.749634,245.406845 622.959106,270.693481 
	C627.329285,282.692657 630.529236,294.789276 631.056763,307.624908 
	C631.885681,327.794739 625.285400,345.619415 614.337524,362.052795 
	C598.385193,385.998108 575.894165,399.870941 547.692749,405.091827 
	C525.155884,409.264038 503.625366,407.227386 483.334991,396.088043 
	C461.245209,383.960907 444.478088,366.653473 438.736084,341.836334 
	C430.870819,307.842346 444.582031,270.475220 484.560791,259.845581 
	C492.285614,257.791687 500.512604,255.769272 508.331268,256.305969 
	C525.481262,257.483215 542.133667,261.325104 554.849365,274.438110 
	C560.944153,280.723389 563.618347,288.185394 564.182190,297.083252 
	C565.159180,312.501373 562.207886,326.683838 553.279419,339.250641 
	C543.601135,352.872803 530.783997,359.750275 513.408569,357.180847 
	C502.502747,355.568146 492.650452,352.843536 484.775543,344.408142 
	C473.572479,332.407806 473.088867,314.129028 482.543518,301.108490 
	C484.239166,298.773315 486.325714,296.494141 488.720581,294.944550 
	C492.998047,292.176849 498.192352,293.171936 501.110657,296.714600 
	C503.012787,299.023804 502.448181,306.142975 500.433777,309.062012 
	C498.140381,312.385345 495.406128,315.670624 494.182159,319.404724 
	C492.237122,325.338654 497.133972,331.939301 501.917999,334.392609 
	C513.594055,340.380127 526.268250,341.272491 533.581299,332.944275 
	C538.285522,327.587097 540.938354,320.344727 544.082764,313.743500 
	C545.320496,311.145111 545.620667,308.018188 545.958923,305.087036 
	C547.691772,290.070404 540.930908,284.030304 528.010132,279.136841 
	C508.355499,271.693115 489.360138,274.663208 472.095306,286.554993 
	C465.554169,291.060455 461.524994,297.971924 458.930939,305.435974 
	C456.959778,311.107727 454.316559,317.019592 454.375580,322.800110 
	C454.445190,329.616730 456.085052,336.852142 458.825775,343.127960 
	C468.377136,364.999084 484.842102,379.637207 508.139221,385.432129 
	C524.896362,389.600281 541.402832,386.314636 557.005127,379.867188 
	C582.341797,369.397186 596.623718,348.862457 604.465942,323.638153 
	C608.115112,311.900909 606.780762,299.609283 604.021179,287.615570 
	C600.291138,271.404266 594.146606,256.277405 584.325256,242.740479 
	C574.724121,229.506958 561.636841,220.878250 546.355774,216.204956 
	C535.114685,212.767136 523.262695,211.326584 511.220306,208.983139 
M511.640625,485.761963 
	C514.023376,481.377045 516.406067,476.992096 518.994934,472.227905 
	C512.942688,472.227905 507.389893,472.227905 500.690796,472.227905 
	C504.447693,477.260498 507.796234,481.746063 511.640625,485.761963 
z"/>
<path fill="#91A5C7" opacity="1.000000" stroke="none" 
	d="
M511.392700,485.996765 
	C507.796234,481.746063 504.447693,477.260498 500.690796,472.227905 
	C507.389893,472.227905 512.942688,472.227905 518.994934,472.227905 
	C516.406067,476.992096 514.023376,481.377045 511.392700,485.996765 
z"/>
</svg>